<svg width="24" height="24" viewBox="0 0 24 24" fill="none" xmlns="http://www.w3.org/2000/svg">
  <defs>
    <linearGradient id="ig-gradient" x1="3" y1="21" x2="21" y2="3" gradientUnits="userSpaceOnUse">
      <stop stop-color="#F58529" />
      <stop offset="0.3" stop-color="#DD2A7B" />
      <stop offset="0.6" stop-color="#8134AF" />
      <stop offset="1" stop-color="#515BD4" />
    </linearGradient>
  </defs>
  <rect x="2" y="2" width="20" height="20" rx="5" fill="url(#ig-gradient)" />
  <path d="M15.5 7H8.5A1.5 1.5 0 0 0 7 8.5v7A1.5 1.5 0 0 0 8.5 17h7a1.5 1.5 0 0 0 1.5-1.5v-7A1.5 1.5 0 0 0 15.5 7Zm-3.5 8a3 3 0 1 1 0-6 3 3 0 0 1 0 6Zm3.75-5.9a.65.65 0 1 1 0-1.3.65.65 0 0 1 0 1.3Z" stroke="#fff" stroke-width="1.2" stroke-linecap="round" stroke-linejoin="round" />
</svg>
