<svg xmlns="http://www.w3.org/2000/svg" width="640" height="400" viewBox="0 0 640 400" role="img" aria-labelledby="title desc">
  <title id="title">Gateway of India illustration</title>
  <desc id="desc">Stylized Gateway of India monument with aircraft.</desc>
  <defs>
    <linearGradient id="sky" x1="0" y1="0" x2="0" y2="1">
      <stop offset="0" stop-color="#1d4ed8" />
      <stop offset="1" stop-color="#0f172a" />
    </linearGradient>
  </defs>
  <rect width="640" height="400" fill="url(#sky)" rx="32" />
  <path d="M160 280h320v40H160z" fill="#0f172a" opacity="0.8" />
  <path d="M200 260h40v20h-40zM400 260h40v20h-40z" fill="#f8fafc" opacity="0.3" />
  <path d="M240 140h160l40 120H200z" fill="#facc15" opacity="0.7" />
  <path d="M260 160h120l28 80H232z" fill="#fde68a" opacity="0.6" />
  <rect x="220" y="120" width="40" height="60" fill="#f59e0b" />
  <rect x="380" y="120" width="40" height="60" fill="#f59e0b" />
  <path d="M220 120h200l-32-32H252z" fill="#fbbf24" opacity="0.7" />
  <path d="M280 80h80l12 24h-104z" fill="#fef08a" opacity="0.8" />
  <path d="M480 120l60 16-60 16" fill="#e0f2fe" />
  <path d="M160 100l-60 16 60 16" fill="#e0f2fe" />
</svg>
