<svg xmlns="http://www.w3.org/2000/svg" width="640" height="400" viewBox="0 0 640 400" role="img" aria-labelledby="title desc">
  <title id="title">Points transfer graphic</title>
  <desc id="desc">Flow of points between bank programs and an airline loyalty scheme.</desc>
  <defs>
    <linearGradient id="flow" x1="0" y1="0" x2="1" y2="1">
      <stop offset="0" stop-color="#38bdf8" />
      <stop offset="1" stop-color="#22c55e" />
    </linearGradient>
  </defs>
  <rect width="640" height="400" fill="#020617" rx="32" />
  <g fill="#0f172a" stroke="#1e293b" stroke-width="2">
    <rect x="72" y="120" width="160" height="160" rx="24" />
    <rect x="248" y="80" width="160" height="240" rx="24" />
    <rect x="424" y="120" width="160" height="160" rx="24" />
  </g>
  <g fill="#38bdf8" opacity="0.8">
    <circle cx="152" cy="200" r="32" />
    <circle cx="328" cy="160" r="32" />
    <circle cx="328" cy="240" r="32" />
    <circle cx="504" cy="200" r="32" />
  </g>
  <path d="M184 200c48-32 96-32 144 0" fill="none" stroke="url(#flow)" stroke-width="10" stroke-linecap="round" />
  <path d="M328 200c48-32 96-32 144 0" fill="none" stroke="url(#flow)" stroke-width="10" stroke-linecap="round" />
  <path d="M152 248c112 72 280 72 352 0" fill="none" stroke="#a855f7" stroke-width="6" stroke-linecap="round" opacity="0.4" />
</svg>
