<svg width="640" height="400" viewBox="0 0 640 400" fill="none" xmlns="http://www.w3.org/2000/svg">
  <rect width="640" height="400" rx="36" fill="url(#paint0_linear)" />
  <rect x="32" y="48" width="576" height="304" rx="24" fill="url(#paint1_linear)" opacity="0.9" />
  <rect x="48" y="96" width="256" height="8" rx="4" fill="white" opacity="0.3" />
  <rect x="48" y="120" width="176" height="8" rx="4" fill="white" opacity="0.18" />
  <rect x="48" y="144" width="220" height="8" rx="4" fill="white" opacity="0.18" />
  <rect x="48" y="168" width="156" height="8" rx="4" fill="white" opacity="0.18" />
  <rect x="48" y="192" width="96" height="8" rx="4" fill="white" opacity="0.18" />
  <rect x="48" y="264" width="144" height="48" rx="12" fill="white" opacity="0.18" />
  <rect x="432" y="88" width="152" height="120" rx="28" fill="white" opacity="0.18" />
  <circle cx="508" cy="148" r="44" fill="#FACC15" opacity="0.85" />
  <circle cx="548" cy="188" r="44" fill="#FB7185" opacity="0.75" />
  <text x="52" y="262" font-family="'Inter', 'Segoe UI', sans-serif" font-size="28" fill="white" font-weight="600">Axis Atlas</text>
  <text x="52" y="300" font-family="'Inter', 'Segoe UI', sans-serif" font-size="16" fill="white" opacity="0.65">Premium Travel Credit Card</text>
  <defs>
    <linearGradient id="paint0_linear" x1="40" y1="0" x2="560" y2="400" gradientUnits="userSpaceOnUse">
      <stop stop-color="#0F172A" />
      <stop offset="1" stop-color="#1E293B" />
    </linearGradient>
    <linearGradient id="paint1_linear" x1="64" y1="48" x2="576" y2="352" gradientUnits="userSpaceOnUse">
      <stop stop-color="#0EA5E9" stop-opacity="0.9" />
      <stop offset="1" stop-color="#7C3AED" stop-opacity="0.95" />
    </linearGradient>
  </defs>
</svg>
